
<svg id="Layer_1" data-name="Layer 1" xmlns="http://www.w3.org/2000/svg" viewBox="0 0 208.67 81.73"><defs><style>.cls-1{fill:#fafcfc;}.cls-2{fill:#0092b0;}.cls-3{fill:#f7f9f9;}.cls-4{fill:#f5fbfc;}.cls-5{fill:#f4821f;}.cls-6{fill:#f5f7f7;}.cls-7{fill:#fefdfd;}</style></defs><title>logo_F</title><path class="cls-1" d="M41,7.26A6.11,6.11,0,0,1,46.52,2l1.15,0h196c.18,0,.36,0,.53,0a6.08,6.08,0,0,1,5.49,5.22c0,.3,0,.6,0,.9V58.85c0,3.74-2.73,6.25-6.81,6.26q-11.26,0-22.52,0A14.52,14.52,0,0,0,213,67q-13.58,7.78-27.11,15.63a8,8,0,0,1-1.9.89,2.91,2.91,0,0,1-3-.54,2.38,2.38,0,0,1-.47-2.75,6.58,6.58,0,0,1,.9-1.59q4.44-6.37,8.9-12.73l.5-.74a2.22,2.22,0,0,0-1-.1H47.8c-3.67,0-6.31-2.1-6.79-5.38,0-.21,0-.43,0-.65V7.92C41,7.7,41,7.48,41,7.26Z" transform="translate(-41.01 -2)"/><path class="cls-2" d="M188.14,76.5l6.21-8.87a4.36,4.36,0,0,0,1-3.48c-.39-1.79-2-2.92-4.31-3H48.24a4.06,4.06,0,0,1-1.66-.19,2,2,0,0,1-1.28-2c0-4.4,0-8.8,0-13.2V8.27a2.49,2.49,0,0,1,2.58-2.38H242.77a2.51,2.51,0,0,1,2.61,2.4V58.61c0,1.81-.75,2.5-2.76,2.5-7.26,0-14.52,0-21.78,0a21,21,0,0,0-10.54,2.78L189,76.19l-.74.41Z" transform="translate(-41.01 -2)"/><path class="cls-3" d="M120.17,46.12c-3.23,0-6.47,0-9.7,0a20.67,20.67,0,0,1-5.85-.88A7.71,7.71,0,0,1,99,39.44a16.33,16.33,0,0,1,0-8,10,10,0,0,1,7.7-7.41,19.66,19.66,0,0,1,9.4-.17c4.26.95,6.63,3.57,6.84,7.63.09,1.74,0,3.49.05,5.24,0,.74-.52.67-1,.67H105.26c-.85,0-1,.2-.75.94.58,1.59,2,2.12,3.61,2.4a7.43,7.43,0,0,0,1.33.08c5.19,0,10.39,0,15.58,0,.85,0,1-.24,1-1,0-4.37,0-8.74,0-13.11,0-2.13,1.34-3.36,3.63-3.37h10.59c4.28,0,8.08,3.38,8.12,7.32,0,4.89,0,9.78,0,14.67,0,.59-.19.82-.86.81-1.36,0-2.73,0-4.09,0-.7,0-.92-.2-.92-.85,0-4.39,0-8.79,0-13.19,0-2.61-1.15-3.74-4-3.85-1.72-.06-3.44,0-5.16,0a1.36,1.36,0,0,0-1.51,1.53c0,4.86,0,9.73,0,14.59,0,1.53-.26,1.77-1.89,1.77h-9.79Z" transform="translate(-41.01 -2)"/><path class="cls-3" d="M157.86,55a21,21,0,0,0-4,.08c-1.43.16-1.68-.11-1.5-1.33a8,8,0,0,0,0-2.35c-.13-.95.05-1.23.88-1.22,4.56,0,9.13,0,13.7,0,1.55,0,2.26-.67,2.2-2.11,0-.14,0-.27,0-.41-.15-1.52-.15-1.51-1.88-1.53a49.28,49.28,0,0,1-6.66-.1,10.16,10.16,0,0,1-8.72-8.76,19.85,19.85,0,0,1,.33-7.75c1.09-3.65,4.81-6.13,8.91-6.16,3.82,0,7.65,0,11.47,0a2.47,2.47,0,0,1,2.57,2.36q0,8.93.1,17.85c0,1.72,0,3.44.07,5.16.15,2.67-2.94,6.64-6.89,6.4C164.87,54.92,161.34,55.28,157.86,55Z" transform="translate(-41.01 -2)"/><path class="cls-3" d="M222.88,37.36h-8.09c-1.24,0-1.26,0-1.24-1.13a51.23,51.23,0,0,1,.11-5.4c.47-3.65,2.52-5.92,6.39-6.91a18.75,18.75,0,0,1,10.5.28c4.61,1.47,6.82,4.74,7.34,9.08a18.29,18.29,0,0,1-.22,5.62c-.73,3.79-3.3,5.9-7.27,6.71a28.14,28.14,0,0,1-7.51.47,58.21,58.21,0,0,0-7.7.07c-1.05.07-1.32-.14-1.24-1A16.47,16.47,0,0,0,214,42c-.1-.93.11-1.23,1-1.22,4,0,8.06,0,12.09,0a6.42,6.42,0,0,0,3.55-.87A2.92,2.92,0,0,0,232,38.26c.16-.57,0-.92-.76-.91-2.1,0-4.2,0-6.31,0Z" transform="translate(-41.01 -2)"/><path class="cls-4" d="M186.41,46.11c-.84,0-2.84.06-3.68,0a3.69,3.69,0,0,1-3-1.5c-2.17-2.73-2.09-7.88.16-10.58a4.55,4.55,0,0,1,3.81-1.74c2.52,0,5,0,7.56,0a3.51,3.51,0,0,0,1.63-.33,1.67,1.67,0,0,0,1-1.9A1.78,1.78,0,0,0,192,28.75c-4,0-8,0-11.92,0-.85,0-1.08-.27-1-1.1a17.64,17.64,0,0,0,0-3.25c-.08-.75.07-1.06.8-1.06,4.57,0,9.13,0,13.7,0a6.07,6.07,0,0,1,5.67,4.46,11.31,11.31,0,0,1,.56,3.55c0,4.62,0,9.23,0,13.85,0,.71-.22.94-1,.93C194.68,46.1,190.54,46.19,186.41,46.11Z" transform="translate(-41.01 -2)"/><path class="cls-5" d="M63,11.89h6.67a1.42,1.42,0,0,1,1.47,1.36v9c0,1.07-.3,1.34-1.49,1.34-2.64,0-5.28,0-7.91,0-.61,0-.72.16-.63.7A5.62,5.62,0,0,0,65,28.65a16.31,16.31,0,0,0,4.72.66,1.14,1.14,0,0,1,1.18,1.09c0,1.09,0,2.18,0,3.27,0,.58-.24,1-.92,1a23.73,23.73,0,0,1-10.07-1.92c-3.19-1.5-4.52-4.09-5-7.19a24.16,24.16,0,0,1-.21-4.08c0-2.7,0-5.4,0-8.11,0-1.13.28-1.4,1.5-1.41H63Z" transform="translate(-41.01 -2)"/><path class="cls-5" d="M80.85,23.31H88.4c1.24,0,1.33.37,1.22,2a56.08,56.08,0,0,0,0,6.86,22.17,22.17,0,0,1-.43,6c-.81,3.64-3.37,5.76-7.1,6.84a27.28,27.28,0,0,1-7.53,1c-1,0-1.24-.54-1-1.73a6.54,6.54,0,0,0,0-2.25c-.16-1,.11-1.35,1-1.35A16.44,16.44,0,0,0,79.29,40a5.8,5.8,0,0,0,4-4c.22-.87.08-1-.59-1-2.49,0-5,0-7.47,0-1.81,0-1.93-.14-1.93-1.77,0-2.84,0-5.68,0-8.52,0-1.11.22-1.35,1.45-1.36,2,0,4.09,0,6.13,0Z" transform="translate(-41.01 -2)"/><path class="cls-1" d="M210.17,37.09q0,6.13,0,12.28a5.59,5.59,0,0,1-2.34,4.9,5,5,0,0,1-2.74.83c-1.42,0-2.85,0-4.27,0-.69,0-.82-.35-.7-1.1a10.68,10.68,0,0,0,0-3.29c-.11-.77.14-1,.79-1s1.31,0,2,0a1.32,1.32,0,0,0,1.43-1.19,5.28,5.28,0,0,0,.07-1V24.48c0-1.12,0-1.12,1.23-1.12s2.4,0,3.6,0a.92.92,0,0,1,1,.88C210.15,28.51,210.17,32.8,210.17,37.09Z" transform="translate(-41.01 -2)"/><path class="cls-6" d="M210.16,19.23c0,.71,0,1.41,0,2.12a.55.55,0,0,1-.58.54c-1.54,0-3.07,0-4.61,0-.61,0-.69-.33-.59-1a14.31,14.31,0,0,0,0-3.64c-.07-.69.35-.84,1.21-.66a8.24,8.24,0,0,0,3.39,0c.9-.17,1.24,0,1.21.6S210.17,18.55,210.16,19.23Z" transform="translate(-41.01 -2)"/><path class="cls-2" d="M110.94,32.19h-5.7c-.81,0-1-.24-.72-1a3.6,3.6,0,0,1,2.17-1.95,12,12,0,0,1,6.51-.94c2.11.29,4,1.05,4.29,3.08a.71.71,0,0,1-.77.79C114.8,32.17,112.87,32.19,110.94,32.19Z" transform="translate(-41.01 -2)"/><path class="cls-2" d="M169,34.77c0,1.74,0,3.49,0,5.24,0,.48-.1.79-.72.78a39.92,39.92,0,0,1-5.89-.24,5.06,5.06,0,0,1-4.28-4.29,11.91,11.91,0,0,1,.22-4.72c.61-2.13,2.1-3,4.73-2.77a34.09,34.09,0,0,0,4.74,0c.89,0,1.23.09,1.2.86C169,31.32,169,33,169,34.77Z" transform="translate(-41.01 -2)"/><path class="cls-2" d="M225.44,32.19c-1.86,0-3.73,0-5.6,0-.76,0-.93-.27-.83-.88a3.13,3.13,0,0,1,2.06-2.39,10.16,10.16,0,0,1,6.51-.44A8.13,8.13,0,0,1,231.06,30a4.5,4.5,0,0,1,.64.67,1.2,1.2,0,0,1,.29,1.23c-.22.45-.74.23-1.12.24C229.06,32.2,227.25,32.19,225.44,32.19Z" transform="translate(-41.01 -2)"/><path class="cls-2" d="M189.22,37.57c1.3,0,2.6,0,3.9,0,.59,0,.89.14.86.73s0,1.37,0,2.05-.48.82-2,.48a12.48,12.48,0,0,0-5.89.09,1.79,1.79,0,0,1-2.47-1.77c0-1,.65-1.56,1.81-1.57Z" transform="translate(-41.01 -2)"/><path class="cls-7" d="M64.6,17.82c0,1.23-.09,1.31-1.38,1.31S61.8,19,61.8,17.86s.12-1.38,1.43-1.38S64.6,16.61,64.6,17.82Z" transform="translate(-41.01 -2)"/><path class="cls-7" d="M79.78,29.1c0-1.16.09-1.24,1.48-1.23s1.41.15,1.4,1.34-.19,1.24-1.52,1.23S79.77,30.35,79.78,29.1Z" transform="translate(-41.01 -2)"/></svg>